<svg width="30" height="30" viewBox="0 0 30 30" fill="none" xmlns="http://www.w3.org/2000/svg" xmlns:xlink="http://www.w3.org/1999/xlink" aria-hidden="true" role="img" >
<g id="discord">
<path id="Vector" d="M27.5 30L20.9375 23.75L21.725 26.25H5.625C4.7962 26.25 4.00134 25.9208 3.41529 25.3347C2.82924 24.7487 2.5 23.9538 2.5 23.125V4.375C2.5 3.5462 2.82924 2.75134 3.41529 2.16529C4.00134 1.57924 4.7962 1.25 5.625 1.25H24.375C25.2038 1.25 25.9987 1.57924 26.5847 2.16529C27.1708 2.75134 27.5 3.5462 27.5 4.375V30ZM15 8.5C11.65 8.5 9.3 9.9375 9.3 9.9375C10.5875 8.7875 12.8375 8.125 12.8375 8.125L12.625 7.9125C10.5125 7.95 8.6 9.4125 8.6 9.4125C6.45 13.9 6.5875 17.775 6.5875 17.775C8.3375 20.0375 10.9375 19.875 10.9375 19.875L11.825 18.75C10.2625 18.4125 9.275 17.025 9.275 17.025C9.275 17.025 11.625 18.625 15 18.625C18.375 18.625 20.725 17.025 20.725 17.025C20.725 17.025 19.7375 18.4125 18.175 18.75L19.0625 19.875C19.0625 19.875 21.6625 20.0375 23.4125 17.775C23.4125 17.775 23.55 13.9 21.4 9.4125C21.4 9.4125 19.4875 7.95 17.375 7.9125L17.1625 8.125C17.1625 8.125 19.4125 8.7875 20.7 9.9375C20.7 9.9375 18.35 8.5 15 8.5ZM12.4125 13.2375C13.225 13.2375 13.8875 13.95 13.875 14.825C13.875 15.6875 13.225 16.4125 12.4125 16.4125C11.6125 16.4125 10.9625 15.6875 10.9625 14.825C10.9625 13.95 11.6 13.2375 12.4125 13.2375ZM17.625 13.2375C18.4375 13.2375 19.0875 13.95 19.0875 14.825C19.0875 15.6875 18.4375 16.4125 17.625 16.4125C16.825 16.4125 16.175 15.6875 16.175 14.825C16.175 13.95 16.8125 13.2375 17.625 13.2375Z" fill="#F2BEFF"/>
</g>
</svg>
