<svg width="24" height="25" viewBox="0 0 24 25" fill="none" xmlns="http://www.w3.org/2000/svg">
<g id="icon/bike">
<path id="Vector" d="M5.5 21.5C7.433 21.5 9 19.933 9 18C9 16.067 7.433 14.5 5.5 14.5C3.567 14.5 2 16.067 2 18C2 19.933 3.567 21.5 5.5 21.5Z" stroke="white" stroke-width="2" stroke-linecap="round" stroke-linejoin="round"/>
<path id="Vector_2" d="M18.5 21.5C20.433 21.5 22 19.933 22 18C22 16.067 20.433 14.5 18.5 14.5C16.567 14.5 15 16.067 15 18C15 19.933 16.567 21.5 18.5 21.5Z" stroke="white" stroke-width="2" stroke-linecap="round" stroke-linejoin="round"/>
<path id="Vector_3" d="M12 18V14.5L9 11.5L13 8.5L15 11.5H17M15 6.5C15.2652 6.5 15.5196 6.39464 15.7071 6.20711C15.8946 6.01957 16 5.76522 16 5.5C16 5.23478 15.8946 4.98043 15.7071 4.79289C15.5196 4.60536 15.2652 4.5 15 4.5C14.7348 4.5 14.4804 4.60536 14.2929 4.79289C14.1054 4.98043 14 5.23478 14 5.5C14 5.76522 14.1054 6.01957 14.2929 6.20711C14.4804 6.39464 14.7348 6.5 15 6.5Z" stroke="white" stroke-width="2" stroke-linecap="round" stroke-linejoin="round"/>
</g>
</svg>
