<svg width="22" height="23" viewBox="0 0 22 23" fill="none" xmlns="http://www.w3.org/2000/svg">
<g id="function">
<mask id="mask0_254_1617" style="mask-type:alpha" maskUnits="userSpaceOnUse" x="0" y="0" width="22" height="23">
<rect id="Bounding box" y="0.591553" width="21.8169" height="21.8169" fill="#D9D9D9"/>
</mask>
<g mask="url(#mask0_254_1617)">
<path id="function_2" d="M9.09037 16.9542V15.1361H10.4994L12.8856 12.409L10.4994 9.68193H8.99947L7.54501 17.4996C7.4238 18.1814 7.14352 18.7155 6.70415 19.1018C6.26478 19.4882 5.70421 19.6813 5.02243 19.6813C4.34065 19.6813 3.78766 19.4995 3.36344 19.1359C2.93922 18.7723 2.72711 18.2875 2.72711 17.6815C2.72711 17.1966 2.85589 16.8065 3.11345 16.5111C3.37101 16.2156 3.69675 16.0679 4.09067 16.0679C4.46943 16.0679 4.79138 16.1967 5.05652 16.4543C5.32166 16.7118 5.45422 17.0224 5.45422 17.386C5.45422 17.4618 5.45044 17.5299 5.44286 17.5905C5.43529 17.6512 5.42392 17.7193 5.40877 17.7951C5.48452 17.7799 5.54892 17.7383 5.60194 17.6701C5.65497 17.6019 5.69663 17.5072 5.72693 17.386L7.13594 9.68193H4.54519V7.86385H7.47683L7.95408 5.27309C8.06013 4.69737 8.3442 4.2277 8.8063 3.86409C9.26839 3.50047 9.8176 3.31866 10.4539 3.31866C11.1206 3.31866 11.666 3.51562 12.0902 3.90954C12.5144 4.30345 12.7265 4.79585 12.7265 5.38672C12.7265 5.84124 12.5977 6.21622 12.3402 6.51166C12.0826 6.8071 11.7569 6.95481 11.363 6.95481C10.9842 6.95481 10.6623 6.82603 10.3971 6.56847C10.132 6.31091 9.99941 5.99275 9.99941 5.61398C9.99941 5.53823 10.0032 5.47005 10.0108 5.40945C10.0183 5.34885 10.0297 5.28067 10.0449 5.20492C9.95396 5.23522 9.88578 5.28067 9.84033 5.34127C9.79488 5.40188 9.757 5.49278 9.7267 5.61398L9.34036 7.86385H13.6356V9.68193H12.9083L14.0901 11.0228L15.2718 9.68193H14.5446V7.86385H19.0898V9.68193H17.6808L15.2946 12.409L17.6808 15.1361H19.0898V16.9542H14.5446V15.1361H15.2718L14.0901 13.7726L12.9083 15.1361H13.6356V16.9542H9.09037Z" fill="white"/>
</g>
</g>
</svg>
