<svg width="25" height="25" viewBox="0 0 25 25" fill="none" xmlns="http://www.w3.org/2000/svg">
<g id="icon/lock">
<path id="Vector" d="M19.6667 11.5H5.66666C4.56209 11.5 3.66666 12.3954 3.66666 13.5V20.5C3.66666 21.6046 4.56209 22.5 5.66666 22.5H19.6667C20.7712 22.5 21.6667 21.6046 21.6667 20.5V13.5C21.6667 12.3954 20.7712 11.5 19.6667 11.5Z" stroke="white" stroke-width="2" stroke-linecap="round" stroke-linejoin="round"/>
<path id="Vector_2" d="M7.66666 11.5V7.5C7.66666 6.17392 8.19344 4.90215 9.13112 3.96447C10.0688 3.02678 11.3406 2.5 12.6667 2.5C13.9927 2.5 15.2645 3.02678 16.2022 3.96447C17.1399 4.90215 17.6667 6.17392 17.6667 7.5V11.5" stroke="white" stroke-width="2" stroke-linecap="round" stroke-linejoin="round"/>
</g>
</svg>
