<svg width="24" height="25" viewBox="0 0 24 25" fill="none" xmlns="http://www.w3.org/2000/svg">
<g id="icon/truck">
<path id="Vector" d="M10 17.5H14V5.5H2V17.5H5" stroke="white" stroke-width="2" stroke-linecap="round" stroke-linejoin="round"/>
<path id="Vector_2" d="M20 17.5H22V14.16C22.0004 13.6346 21.8973 13.1142 21.6965 12.6286C21.4958 12.143 21.2013 11.7018 20.83 11.33L19 9.5H14" stroke="white" stroke-width="2" stroke-linecap="round" stroke-linejoin="round"/>
<path id="Vector_3" d="M14 17.5H15" stroke="white" stroke-width="2" stroke-linecap="round" stroke-linejoin="round"/>
<path id="Vector_4" d="M7.5 20.5C8.88071 20.5 10 19.3807 10 18C10 16.6193 8.88071 15.5 7.5 15.5C6.11929 15.5 5 16.6193 5 18C5 19.3807 6.11929 20.5 7.5 20.5Z" stroke="white" stroke-width="2" stroke-linecap="round" stroke-linejoin="round"/>
<path id="Vector_5" d="M17.5 20.5C18.8807 20.5 20 19.3807 20 18C20 16.6193 18.8807 15.5 17.5 15.5C16.1193 15.5 15 16.6193 15 18C15 19.3807 16.1193 20.5 17.5 20.5Z" stroke="white" stroke-width="2" stroke-linecap="round" stroke-linejoin="round"/>
</g>
</svg>
